<mxfile host="app.diagrams.net" modified="2024-05-22T07:27:00.447Z" agent="Mozilla/5.0 (Windows NT 10.0; Win64; x64) AppleWebKit/537.36 (KHTML, like Gecko) Chrome/125.0.0.0 Safari/537.36" etag="hQhTQ3ZmVpoMLstGkTTW" version="24.4.4" type="device">
  <diagram name="delete_data" id="ViCEmuXcnotUAf49urry">
    <mxGraphModel dx="1207" dy="651" grid="1" gridSize="10" guides="1" tooltips="1" connect="1" arrows="1" fold="1" page="1" pageScale="1" pageWidth="827" pageHeight="1169" math="0" shadow="0">
      <root>
        <mxCell id="tIVqjUw75CjybUOyX16O-0" />
        <mxCell id="tIVqjUw75CjybUOyX16O-1" parent="tIVqjUw75CjybUOyX16O-0" />
        <mxCell id="tIVqjUw75CjybUOyX16O-2" value="Hapus Data" style="text;strokeColor=none;align=center;fillColor=none;html=1;verticalAlign=middle;whiteSpace=wrap;rounded=0;fontStyle=1;fontSize=18;" parent="tIVqjUw75CjybUOyX16O-1" vertex="1">
          <mxGeometry y="10" width="140" height="30" as="geometry" />
        </mxCell>
        <mxCell id="tIVqjUw75CjybUOyX16O-3" style="edgeStyle=orthogonalEdgeStyle;rounded=0;orthogonalLoop=1;jettySize=auto;html=1;exitX=0.5;exitY=1;exitDx=0;exitDy=0;entryX=0.5;entryY=0;entryDx=0;entryDy=0;" parent="tIVqjUw75CjybUOyX16O-1" source="tIVqjUw75CjybUOyX16O-4" target="tIVqjUw75CjybUOyX16O-16" edge="1">
          <mxGeometry relative="1" as="geometry" />
        </mxCell>
        <mxCell id="tIVqjUw75CjybUOyX16O-4" value="&lt;font style=&quot;font-size: 12px;&quot;&gt;D&lt;/font&gt;" style="verticalLabelPosition=middle;verticalAlign=middle;html=1;shape=offPageConnector;rounded=0;size=0.6666666666666666;whiteSpace=wrap;textShadow=0;labelBorderColor=none;labelBackgroundColor=none;fontColor=default;labelPosition=center;align=center;" parent="tIVqjUw75CjybUOyX16O-1" vertex="1">
          <mxGeometry x="384" y="60" width="60" height="60" as="geometry" />
        </mxCell>
        <mxCell id="tIVqjUw75CjybUOyX16O-5" style="edgeStyle=orthogonalEdgeStyle;rounded=0;orthogonalLoop=1;jettySize=auto;html=1;exitX=0.5;exitY=1;exitDx=0;exitDy=0;entryX=0.5;entryY=0;entryDx=0;entryDy=0;" parent="tIVqjUw75CjybUOyX16O-1" source="tIVqjUw75CjybUOyX16O-6" target="tIVqjUw75CjybUOyX16O-8" edge="1">
          <mxGeometry relative="1" as="geometry" />
        </mxCell>
        <mxCell id="tIVqjUw75CjybUOyX16O-6" value="Data berhasil dihapus" style="shape=parallelogram;html=1;strokeWidth=2;perimeter=parallelogramPerimeter;whiteSpace=wrap;rounded=1;arcSize=12;size=0.23;" parent="tIVqjUw75CjybUOyX16O-1" vertex="1">
          <mxGeometry x="319" y="780" width="190" height="60" as="geometry" />
        </mxCell>
        <mxCell id="tIVqjUw75CjybUOyX16O-7" style="edgeStyle=orthogonalEdgeStyle;rounded=0;orthogonalLoop=1;jettySize=auto;html=1;exitX=1;exitY=0.5;exitDx=0;exitDy=0;entryX=1;entryY=0.5;entryDx=0;entryDy=0;" parent="tIVqjUw75CjybUOyX16O-1" source="tIVqjUw75CjybUOyX16O-8" edge="1">
          <mxGeometry relative="1" as="geometry">
            <Array as="points">
              <mxPoint x="640" y="970" />
              <mxPoint x="640" y="210" />
            </Array>
            <mxPoint x="472.6899999999999" y="950" as="sourcePoint" />
            <mxPoint x="497.07" y="210" as="targetPoint" />
          </mxGeometry>
        </mxCell>
        <mxCell id="tIVqjUw75CjybUOyX16O-8" value="Apakah lanjut?" style="rhombus;whiteSpace=wrap;html=1;" parent="tIVqjUw75CjybUOyX16O-1" vertex="1">
          <mxGeometry x="355" y="910" width="117.37" height="120" as="geometry" />
        </mxCell>
        <mxCell id="tIVqjUw75CjybUOyX16O-9" value="Selesai" style="strokeWidth=2;html=1;shape=mxgraph.flowchart.terminator;whiteSpace=wrap;" parent="tIVqjUw75CjybUOyX16O-1" vertex="1">
          <mxGeometry x="364" y="1100" width="100" height="60" as="geometry" />
        </mxCell>
        <mxCell id="tIVqjUw75CjybUOyX16O-10" style="edgeStyle=orthogonalEdgeStyle;rounded=0;orthogonalLoop=1;jettySize=auto;html=1;exitX=0.5;exitY=1;exitDx=0;exitDy=0;entryX=0.5;entryY=0;entryDx=0;entryDy=0;entryPerimeter=0;" parent="tIVqjUw75CjybUOyX16O-1" source="tIVqjUw75CjybUOyX16O-8" target="tIVqjUw75CjybUOyX16O-9" edge="1">
          <mxGeometry relative="1" as="geometry" />
        </mxCell>
        <mxCell id="tIVqjUw75CjybUOyX16O-11" value="Tidak" style="text;html=1;align=center;verticalAlign=middle;resizable=0;points=[];autosize=1;strokeColor=none;fillColor=none;" parent="tIVqjUw75CjybUOyX16O-1" vertex="1">
          <mxGeometry x="414" y="1050" width="50" height="30" as="geometry" />
        </mxCell>
        <mxCell id="tIVqjUw75CjybUOyX16O-12" value="Ya" style="text;html=1;align=center;verticalAlign=middle;resizable=0;points=[];autosize=1;strokeColor=none;fillColor=none;" parent="tIVqjUw75CjybUOyX16O-1" vertex="1">
          <mxGeometry x="414" y="540" width="40" height="30" as="geometry" />
        </mxCell>
        <mxCell id="tIVqjUw75CjybUOyX16O-13" style="edgeStyle=orthogonalEdgeStyle;rounded=0;orthogonalLoop=1;jettySize=auto;html=1;exitX=0.5;exitY=1;exitDx=0;exitDy=0;entryX=0.5;entryY=0;entryDx=0;entryDy=0;" parent="tIVqjUw75CjybUOyX16O-1" source="tIVqjUw75CjybUOyX16O-14" target="tIVqjUw75CjybUOyX16O-6" edge="1">
          <mxGeometry relative="1" as="geometry" />
        </mxCell>
        <mxCell id="tIVqjUw75CjybUOyX16O-14" value="Proses hapus data" style="rounded=1;whiteSpace=wrap;html=1;" parent="tIVqjUw75CjybUOyX16O-1" vertex="1">
          <mxGeometry x="341" y="610" width="146" height="80" as="geometry" />
        </mxCell>
        <mxCell id="FXwdtPmpbNNNX_pPlDyr-0" style="edgeStyle=orthogonalEdgeStyle;rounded=0;orthogonalLoop=1;jettySize=auto;html=1;exitX=0.5;exitY=1;exitDx=0;exitDy=0;entryX=0.5;entryY=0;entryDx=0;entryDy=0;" parent="tIVqjUw75CjybUOyX16O-1" source="tIVqjUw75CjybUOyX16O-16" target="tIVqjUw75CjybUOyX16O-21" edge="1">
          <mxGeometry relative="1" as="geometry" />
        </mxCell>
        <mxCell id="tIVqjUw75CjybUOyX16O-16" value="pilih data yang mau dihapus" style="shape=parallelogram;html=1;strokeWidth=2;perimeter=parallelogramPerimeter;whiteSpace=wrap;rounded=1;arcSize=12;size=0.17250000000000001;" parent="tIVqjUw75CjybUOyX16O-1" vertex="1">
          <mxGeometry x="314" y="200" width="200" height="60" as="geometry" />
        </mxCell>
        <mxCell id="tIVqjUw75CjybUOyX16O-19" style="edgeStyle=orthogonalEdgeStyle;rounded=0;orthogonalLoop=1;jettySize=auto;html=1;exitX=0.5;exitY=1;exitDx=0;exitDy=0;entryX=0.5;entryY=0;entryDx=0;entryDy=0;" parent="tIVqjUw75CjybUOyX16O-1" source="tIVqjUw75CjybUOyX16O-21" target="tIVqjUw75CjybUOyX16O-14" edge="1">
          <mxGeometry relative="1" as="geometry" />
        </mxCell>
        <mxCell id="tIVqjUw75CjybUOyX16O-21" value="Yakin hapus data?" style="rhombus;whiteSpace=wrap;html=1;" parent="tIVqjUw75CjybUOyX16O-1" vertex="1">
          <mxGeometry x="355" y="380" width="117.37" height="120" as="geometry" />
        </mxCell>
        <mxCell id="tIVqjUw75CjybUOyX16O-24" value="Ya" style="text;html=1;align=center;verticalAlign=middle;resizable=0;points=[];autosize=1;strokeColor=none;fillColor=none;" parent="tIVqjUw75CjybUOyX16O-1" vertex="1">
          <mxGeometry x="530" y="940" width="40" height="30" as="geometry" />
        </mxCell>
      </root>
    </mxGraphModel>
  </diagram>
</mxfile>
